# xmcd
#
# Track frame offsets: 
#        150
#        14117
#        32391
#        50275
#        64651
#        80026
#        98106
#        116382
#        139293
#        158500
#        175944
#        195548
#        216780
#        234583
#        249352
#        262304
#        277177
#
# Disc length: 3887 seconds
#
# Revision: 0
# Processed by: cddbd v1.5.2PL0 Copyright (c) Steve Scherf et al.
# Submitted via: ExactAudioCopy v0.99pb4
#
DISCID=f10f2d11
DTITLE=Savage-C - Chris Hates Everybody
DYEAR=2012
DGENRE=Rap
TTITLE0=Chris Hates Everybody
TTITLE1=Rodney King
TTITLE2=Zip Code
TTITLE3=The Sound Of Dirt Feat. Shiesty
TTITLE4=Point Break
TTITLE5=Dancing On Your Grave
TTITLE6=The Worst Person Alive
TTITLE7=No A.C.
TTITLE8=Don The Jeweler (AKA Donnie Brasco)
TTITLE9=Silver Bullets (AKA Teen Wolf)
TTITLE10=Gummy Bears Feat. M-Dash
TTITLE11=Dwight Schrute
TTITLE12=Weed, Pills and Hennessy
TTITLE13=Ace Ventura
TTITLE14=Scrooge McDuck Feat. Mista Cane
TTITLE15=Pills (AKA Pop Star)
TTITLE16=Pocket Full Of Drugs
EXTD=
EXTT0=
EXTT1=
EXTT2=
EXTT3=
EXTT4=
EXTT5=
EXTT6=
EXTT7=
EXTT8=
EXTT9=
EXTT10=
EXTT11=
EXTT12=
EXTT13=
EXTT14=
EXTT15=
EXTT16=
PLAYORDER=
